<svg id="Ebene_2" data-name="Ebene 2" xmlns="http://www.w3.org/2000/svg" width="1005" height="144.69" viewBox="0 0 1005 144.69">
  <g id="Ebene_1">
    <g id="Logo_White">
      <path id="Pfad_202" d="M194.94,142.69H172.52a1.52,1.52,0,0,1-1.51-1.51V21.3a1.5,1.5,0,0,1,1.5-1.5h22.43a1.5,1.5,0,0,1,1.5,1.5V35.85a.5.5,0,0,0,.92.28c7-11,18.48-17.9,34.35-18.31a1.49,1.49,0,0,1,1.53,1.5v23.3a1.5,1.5,0,0,1-1.5,1.49h-5c-18.73,0-30.33,7.81-30.33,33.9v63.17a1.51,1.51,0,0,1-1.47,1.51Z" fill="#fff"/>
      <path id="Pfad_203" d="M305.51,144.69c-35.24,0-61.33-25-61.33-63.56s25-63.33,61.33-63.33c35,0,59.76,24.31,59.76,60.43a80.591,80.591,0,0,1-.7,11.2,1.5,1.5,0,0,1-1.49,1.29h-92a.51.51,0,0,0-.51.56c2,20,16.4,32,35,32,15.16,0,23.8-7.15,28.58-16.35a1.48,1.48,0,0,1,1.32-.82h24.42a1.5,1.5,0,0,1,1.4,2C353.77,128.59,334.66,144.69,305.51,144.69ZM271.3,70.21h66.91a.52.52,0,0,0,.51-.53C338,51,323.17,39.21,304.39,39.21c-17,0-30.72,11.36-33.59,30.41a.51.51,0,0,0,.5.59Z" fill="#fff"/>
      <path id="Pfad_204" d="M440.76,17.8c19.94,0,33.9,9.07,41.69,18.69a.51.51,0,0,0,.91-.32V21.3a1.5,1.5,0,0,1,1.49-1.5h22.66A1.5,1.5,0,0,1,509,21.3V141.19a1.5,1.5,0,0,1-1.49,1.5H484.85a1.5,1.5,0,0,1-1.49-1.5V125.87a.5.5,0,0,0-.9-.31c-8,10-22.39,19.13-42.15,19.13-31.89,0-57.53-26.09-57.53-64S408.42,17.8,440.76,17.8Zm5.35,22.08c-18.95,0-37.24,14.27-37.24,40.81s18.29,41.92,37.24,41.92c19.18,0,37.25-14.94,37.25-41.48,0-26.31-18.07-41.25-37.25-41.25Z" fill="#fff"/>
      <path id="Pfad_205" d="M616.19,74c0-22.53-12.27-34.12-30.78-34.12-18.73,0-31,11.59-31,34.12v67.18a1.51,1.51,0,0,1-1.5,1.51H530.49a1.51,1.51,0,0,1-1.5-1.51V21.31a1.51,1.51,0,0,1,1.5-1.51h22.42a1.51,1.51,0,0,1,1.5,1.51V32.49a.5.5,0,0,0,.88.33c8.32-9.42,21.49-15,35.69-15,28.77,0,50.41,18.06,50.41,52.41v71a1.52,1.52,0,0,1-1.51,1.51H617.69a1.51,1.51,0,0,1-1.5-1.51Z" fill="#fff"/>
      <path id="Pfad_206" d="M835.47,74c0-22.53-12.26-34.12-30.77-34.12-18.74,0-31,11.59-31,34.12v67.18a1.52,1.52,0,0,1-1.51,1.51H750a1.51,1.51,0,0,1-1.5-1.51V74c0-22.53-12.27-34.12-30.78-34.12-18.73,0-31,11.59-31,34.12v67.18a1.51,1.51,0,0,1-1.5,1.51H662.8a1.51,1.51,0,0,1-1.5-1.51V21.31a1.51,1.51,0,0,1,1.5-1.51h22.42a1.51,1.51,0,0,1,1.5,1.51V32.49a.51.51,0,0,0,.89.33c8.3-9.42,21.26-15,35.46-15,19.07,0,35.13,8,43.72,23.49a.49.49,0,0,0,.87,0c7.8-14.46,24.88-23.48,42.39-23.48,28.77,0,50.62,18.06,50.62,52.41v71a1.51,1.51,0,0,1-1.5,1.51H837a1.52,1.52,0,0,1-1.51-1.51Z" fill="#fff"/>
      <path id="Pfad_207" d="M941.2,144.69c-35,0-61.55-25-61.55-63.56S907.3,17.8,942.32,17.8,1005,42.55,1005,81.13,976.44,144.69,941.2,144.69Zm0-22.08c19,0,37.69-13.6,37.69-41.48s-18.06-41.25-37-41.25c-19.18,0-36.35,13.38-36.35,41.25S922,122.61,941.2,122.61Z" fill="#fff"/>
      <path id="Pfad_208" d="M0,141a2,2,0,0,0,2,2H16a2,2,0,0,0,2-2V20a2,2,0,0,1,2-2h95a2,2,0,0,0,2-2V2a2,2,0,0,0-2-2H2A2,2,0,0,0,0,2Z" fill="#00acdf"/>
      <path id="Pfad_209" d="M31,141a2,2,0,0,0,2,2H47a2,2,0,0,0,2-2V50.72a2,2,0,0,1,2-2h64a2,2,0,0,0,2-2V33a2,2,0,0,0-2-2H33a2,2,0,0,0-2,2Z" fill="#00acdf"/>
      <path id="Pfad_210" d="M62,141a2,2,0,0,0,2,2H78a2,2,0,0,0,2-2V81a2,2,0,0,1,2-2h33a2,2,0,0,0,2-2V64a2,2,0,0,0-2-2H64a2,2,0,0,0-2,2Z" fill="#00acdf"/>
    </g>
  </g>
</svg>
